# xmcd
#
# Track frame offsets: 
#        182
#        15450
#        30130
#        44362
#        58307
#        71707
#        83575
#        97785
#        112122
#        127027
#        140565
#        155217
#        167852
#        181505
#        194795
#        207590
#
# Disc length: 2959 seconds
#
# Revision: 7
# Processed by: cddbd v1.5.2PL0 Copyright (c) Steve Scherf et al.
# Submitted via: ExactAudioCopyFreeDBPlugin 1.0
#
DISCID=e30b8d10
DTITLE=Arthur Crudup - Rock Me Mama
DYEAR=1900
DGENRE=Blues
TTITLE0=Black Pony Blues
TTITLE1=Death Valley Blues
TTITLE2=Kind Lover Blues
TTITLE3=If I Get Lucky
TTITLE4=Give Me A 32-20
TTITLE5=Mean Old Frisco Blues
TTITLE6=Raised To My Hand
TTITLE7=Cool Disposition
TTITLE8=Who's Been Foolin' You
TTITLE9=Rock Me Mama
TTITLE10=That's Your Red Wagon
TTITLE11=So Glad You're Mine
TTITLE12=Boy Friend Blues
TTITLE13=Crudup's After Hours
TTITLE14=I Don't Know It
TTITLE15=Chicago Blues
EXTD=
EXTT0=
EXTT1=
EXTT2=
EXTT3=
EXTT4=
EXTT5=
EXTT6=
EXTT7=
EXTT8=
EXTT9=
EXTT10=
EXTT11=
EXTT12=
EXTT13=
EXTT14=
EXTT15=
PLAYORDER=
